<svg xmlns="http://www.w3.org/2000/svg" viewBox="659.99 447.16 120.01 120.84" fill="none" aria-hidden="true"><g><path fill-rule="evenodd" clip-rule="evenodd" d="M753.73 522.3L761.56 530.18L761.56 530.2C762.18 530.83 762.54 531.69 762.54 532.58V545.06C762.54 546.43 762.05 547.68 761.24 548.65C761.1 548.82 760.93 548.99 760.76 549.14C759.79 549.95 758.55 550.45 757.19 550.45H744.8C743.91 550.45 743.06 550.09 742.43 549.46L734.6 541.57C734.31 541.28 734.31 540.82 734.6 540.53C734.74 540.39 734.92 540.32 735.12 540.32H750.86C751.31 540.32 751.73 540.15 752.05 539.88C752.33 539.55 752.49 539.13 752.49 538.67V522.82C752.49 522.62 752.57 522.43 752.7 522.3C752.99 522.01 753.45 522.01 753.73 522.3ZM734.3 511.4L737.95 515.07H732.79C731.38 515.07 730.11 515.6 729.12 516.46C729.02 516.55 728.91 516.66 728.82 516.76C727.96 517.75 727.44 519.04 727.44 520.46V525.65L723.79 521.98C722.8 520.98 721.52 520.44 720.23 520.35C720.09 520.34 719.94 520.34 719.8 520.35C718.5 520.44 717.23 520.98 716.24 521.98L712.59 525.65V520.46C712.59 519.04 712.06 517.75 711.2 516.76C711.11 516.66 711.01 516.55 710.9 516.46C709.92 515.6 708.64 515.07 707.23 515.07H702.07L705.72 511.4C706.71 510.4 707.25 509.11 707.33 507.8C707.34 507.77 707.34 507.74 707.34 507.7C707.34 507.69 707.34 507.67 707.34 507.65C707.34 507.56 707.34 507.47 707.33 507.38C707.24 506.07 706.71 504.78 705.71 503.78L702.07 500.11H707.23C708.63 500.11 709.92 499.58 710.9 498.71C711.01 498.62 711.11 498.52 711.2 498.41C712.06 497.42 712.58 496.13 712.58 494.71V489.51L716.23 493.19C717.22 494.19 718.5 494.73 719.8 494.82C719.94 494.83 720.09 494.83 720.23 494.82C721.52 494.73 722.8 494.19 723.79 493.19L727.44 489.51V494.71C727.44 496.13 727.97 497.42 728.82 498.41C728.91 498.52 729.01 498.62 729.12 498.71C730.1 499.58 731.39 500.11 732.79 500.11H737.95L734.3 503.78C733.31 504.78 732.77 506.07 732.68 507.38C732.68 507.43 732.68 507.47 732.68 507.52C732.67 507.62 732.68 507.71 732.68 507.8C732.77 509.11 733.31 510.4 734.3 511.4H734.3ZM751.32 494.18C751.19 494.04 751 493.97 750.81 493.97L735.11 494.02C734.65 494.02 734.24 493.86 733.92 493.58C733.65 493.25 733.48 492.83 733.48 492.38L733.53 476.59C733.53 476.38 733.45 476.18 733.31 476.04C733.01 475.74 732.52 475.74 732.22 476.04L721.16 487.24C720.84 487.56 720.43 487.74 720.02 487.78C719.6 487.74 719.19 487.56 718.87 487.24L707.82 476.04C707.51 475.74 707.03 475.73 706.73 476.04C706.58 476.18 706.5 476.38 706.5 476.59L706.55 492.38C706.55 492.84 706.39 493.26 706.11 493.58C705.79 493.85 705.37 494.02 704.92 494.02L689.22 493.97C689.03 493.97 688.84 494.04 688.71 494.18L688.66 494.23C688.38 494.51 688.38 494.98 688.66 495.26L699.82 506.43C700.14 506.75 700.32 507.16 700.35 507.58C700.32 508 700.14 508.41 699.82 508.74L688.69 519.88C688.55 520.02 688.47 520.21 688.47 520.4V520.47C688.47 520.87 688.8 521.2 689.2 521.2L704.93 521.15C705.38 521.15 705.8 521.31 706.12 521.59C706.39 521.91 706.55 522.33 706.55 522.79L706.5 538.6C706.5 538.79 706.58 538.98 706.72 539.12L706.76 539.16C707.05 539.45 707.51 539.45 707.79 539.16L718.88 527.93C719.2 527.61 719.61 527.43 720.02 527.39C720.44 527.43 720.85 527.61 721.17 527.93L732.24 539.14C732.37 539.28 732.56 539.36 732.75 539.36H732.82C733.22 539.36 733.54 539.03 733.54 538.62L733.49 522.78C733.49 522.33 733.65 521.91 733.93 521.59C734.25 521.31 734.67 521.15 735.12 521.15L750.84 521.2C751.25 521.2 751.57 520.87 751.57 520.47V520.4C751.57 520.21 751.5 520.02 751.36 519.88L747.55 516.05C747.43 515.92 747.28 515.81 747.14 515.7L740.22 508.74C739.9 508.41 739.73 508 739.69 507.58C739.73 507.16 739.9 506.75 740.22 506.42L751.37 495.26C751.66 494.97 751.66 494.51 751.37 494.22L751.33 494.18L751.32 494.18ZM686.27 492.88L678.45 485V484.99C677.82 484.36 677.46 483.5 677.46 482.6V470.13C677.46 468.76 677.95 467.51 678.76 466.53C678.91 466.36 679.07 466.2 679.25 466.05C680.21 465.23 681.46 464.74 682.82 464.74H695.2C696.09 464.74 696.95 465.1 697.57 465.73L705.4 473.62C705.69 473.9 705.69 474.37 705.4 474.65C705.26 474.79 705.08 474.87 704.89 474.87H689.15C688.7 474.87 688.28 475.04 687.96 475.31C687.68 475.63 687.52 476.05 687.52 476.51V492.37C687.52 492.56 687.44 492.75 687.31 492.89C687.02 493.17 686.56 493.17 686.28 492.89L686.27 492.88ZM698.75 540.31H689.14C688.69 540.31 688.27 540.15 687.95 539.87C687.68 539.55 687.52 539.13 687.52 538.67V522.81C687.52 522.62 687.44 522.43 687.3 522.29C687.02 522 686.55 522 686.27 522.29L678.44 530.18C677.81 530.81 677.46 531.67 677.46 532.56V545.04C677.46 546.41 677.95 547.66 678.75 548.63C678.91 548.81 679.07 548.97 679.24 549.12C680.21 549.93 681.45 550.43 682.81 550.43H695.19C696.08 550.43 696.93 550.07 697.56 549.44L705.39 541.55C705.67 541.26 705.67 540.8 705.39 540.52C705.26 540.38 705.07 540.3 704.87 540.3H698.74L698.75 540.32L698.75 540.31ZM750.86 474.87H736.98L736.98 474.87H735.12C734.93 474.87 734.74 474.79 734.61 474.66C734.32 474.37 734.32 473.9 734.61 473.62L742.44 465.73C743.06 465.1 743.92 464.74 744.81 464.74H757.2C758.55 464.74 759.8 465.24 760.76 466.05C760.93 466.2 761.1 466.36 761.25 466.54C762.06 467.51 762.55 468.76 762.55 470.13V482.61C762.55 483.5 762.19 484.36 761.56 485L753.73 492.88C753.45 493.17 752.99 493.17 752.71 492.88C752.57 492.74 752.49 492.56 752.49 492.36V476.5C752.49 476.05 752.32 475.63 752.05 475.31C751.73 475.03 751.32 474.87 750.86 474.87V474.87ZM727.95 545.86L721.16 552.7C720.84 553.02 720.43 553.2 720.01 553.24C719.59 553.2 719.18 553.02 718.86 552.7L707.73 541.48C707.59 541.35 707.4 541.26 707.21 541.26C706.81 541.26 706.48 541.6 706.48 541.99V553.15C706.48 554.05 706.84 554.9 707.47 555.53L716.22 564.35C717.18 565.32 718.41 565.86 719.67 565.98C719.9 566 720.12 566 720.35 565.98C721.61 565.86 722.83 565.33 723.79 564.35L732.55 555.53C733.18 554.9 733.53 554.04 733.53 553.15V541.99C733.53 541.58 733.21 541.26 732.81 541.26C732.61 541.26 732.43 541.34 732.29 541.48L727.95 545.85V545.85L727.95 545.86ZM686.56 520.48C686.56 520.29 686.48 520.1 686.34 519.96L675.21 508.75C674.88 508.42 674.71 508.01 674.67 507.59C674.71 507.17 674.88 506.75 675.21 506.43L685.02 496.55L686.34 495.22C686.47 495.09 686.55 494.9 686.55 494.7C686.55 494.3 686.23 493.97 685.82 493.97H674.75C673.86 493.97 673.01 494.32 672.38 494.96L663.63 503.78C662.67 504.75 662.13 505.98 662.02 507.24C661.99 507.48 661.99 507.7 662.02 507.93C662.13 509.2 662.66 510.43 663.63 511.4L672.38 520.22C673.01 520.86 673.87 521.21 674.76 521.21H685.83C686.23 521.21 686.56 520.88 686.56 520.48L686.56 520.48ZM711.98 507.59C711.98 503.12 715.58 499.5 720.01 499.5C724.45 499.5 728.05 503.12 728.05 507.59C728.05 512.06 724.45 515.68 720.01 515.68C715.58 515.68 711.98 512.06 711.98 507.59ZM776.38 503.77C777.35 504.75 777.88 505.98 777.99 507.24L777.99 507.23C778 507.46 778 507.69 777.99 507.92C777.87 509.19 777.34 510.42 776.38 511.39L767.62 520.21C766.99 520.84 766.13 521.2 765.24 521.2H754.17C753.77 521.2 753.44 520.87 753.44 520.47C753.44 520.27 753.52 520.08 753.66 519.95L758 515.57L764.79 508.73C765.12 508.41 765.29 508 765.33 507.57C765.29 507.15 765.12 506.74 764.79 506.42L754.98 496.53L753.66 495.21C753.52 495.07 753.45 494.88 753.45 494.69C753.45 494.29 753.77 493.96 754.17 493.96H765.25C766.14 493.96 766.99 494.32 767.62 494.95L776.38 503.77L776.38 503.77ZM718.85 462.47L709.03 472.36L709.04 472.36L707.72 473.69C707.59 473.83 707.4 473.9 707.21 473.9C706.8 473.9 706.48 473.58 706.48 473.17V462.01C706.48 461.12 706.83 460.26 707.46 459.63L716.22 450.81C717.18 449.83 718.4 449.3 719.66 449.18C719.89 449.16 720.12 449.16 720.35 449.18C721.6 449.3 722.82 449.84 723.78 450.81L732.54 459.63C733.17 460.26 733.52 461.12 733.52 462.02V473.18C733.52 473.58 733.2 473.91 732.79 473.91C732.6 473.91 732.41 473.83 732.28 473.69L727.94 469.32L721.14 462.48C720.82 462.15 720.41 461.97 720 461.94C719.58 461.97 719.17 462.15 718.85 462.48L718.85 462.47Z" fill="#000" />
</g></svg>
