<svg xmlns="http://www.w3.org/2000/svg" viewBox="265.11 127.92 68.95 69.41" fill="none" aria-hidden="true"><g><path d="M332.06 161.85L315.95 159.75L320.73 158.9L320.72 158.84L315.76 159.72L312.18 159.25L316.31 158.14L316.3 158.08L312.03 159.23L309.73 158.93L325.12 153.29L325.1 153.24L309.61 158.92L307.99 158.71L319.41 153.35L319.38 153.29L307.88 158.69L307.01 158.58L306.68 158.53L320.73 150.36L320.7 150.31L306.58 158.52L306.07 158.46L306.34 157.89L317.95 149.71L317.92 149.66L306.39 157.79L307.1 156.31L316.05 148.75L316.01 148.7L307.16 156.18L308.23 153.96L311.85 150.32L311.81 150.27L308.3 153.8L309.46 151.38L310.1 150.05L317.07 141.69L317.02 141.65L310.2 149.83L310.31 149.61L310.27 149.63L310.28 149.59L306.97 152.05L312.15 144.61L312.1 144.57L306.82 152.16L304.71 153.73L311.81 141.36L311.76 141.33L304.6 153.82L303.22 154.85L309.08 142.19L309.02 142.17L303.12 154.92L302.83 155.14L302.69 154.11L306.95 142.32L306.9 142.3L302.68 153.98L302.43 152.04L304.09 145.79L304.04 145.78L302.41 151.89L302.02 148.87L304.33 135.69L304.27 135.68L302 148.68L301.3 143.24L301.52 140.69L301.46 140.69L301.26 142.97L299.59 129.92L297.91 142.98L297.66 140.15L297.6 140.15L297.87 143.25L297.17 148.68L295.89 141.33L295.83 141.34L297.15 148.88L296.76 151.89L295.13 145.78L295.08 145.79L296.74 152.05L296.49 153.98L290.32 136.91L290.27 136.93L296.48 154.11L296.34 155.14L296.05 154.92L290.37 142.66L290.32 142.68L295.95 154.85L294.57 153.82L287.41 141.33L287.36 141.36L294.46 153.73L292.35 152.16L286.76 144.13L286.71 144.16L292.2 152.05L288.89 149.59L288.9 149.63L288.86 149.61L288.97 149.83L285.81 146.04L285.76 146.08L289.07 150.05L289.71 151.38L290.87 153.8L287.37 150.27L287.32 150.32L290.94 153.96L292.01 156.18L278.8 145.02L278.76 145.06L292.07 156.31L292.78 157.79L281.7 149.97L281.66 150.02L292.83 157.89L293.1 158.46L292.6 158.52L278.47 150.31L278.44 150.36L292.5 158.54L292.16 158.58L291.29 158.69L279.3 153.06L279.27 153.12L291.18 158.71L289.56 158.92L279.43 155.2L279.4 155.26L289.44 158.93L287.14 159.23L282.87 158.08L282.86 158.14L286.99 159.25L283.41 159.72L272.84 157.84L272.83 157.9L283.22 159.75L267.11 161.85L272.84 162.59H270.52V162.65H273.29L283.63 164L277.27 164.56L277.27 164.62L283.9 164.03L288.27 164.6L278.44 166.35L278.45 166.41L288.46 164.63L290.87 164.94L282.86 167.11L282.87 167.16L291.03 164.96L292.16 165.11L292.58 165.17L293.37 165.27L293.78 165.37L292.83 167.35L281.22 175.54L281.25 175.59L292.78 167.46L292.07 168.93L283.12 176.5L283.16 176.54L292.01 169.06L290.94 171.28L287.32 174.93L287.37 174.97L290.87 171.44L289.71 173.86L289.07 175.2L282.1 183.56L282.15 183.59L288.97 175.41L288.86 175.63L288.9 175.61L288.89 175.66L292.2 173.19L287.02 180.64L287.07 180.67L292.35 173.08L294.46 171.51L287.36 183.89L287.41 183.92L294.57 171.42L295.95 170.39L290.09 183.06L290.14 183.08L296.05 170.32L296.34 170.1L296.48 171.14L292.22 182.93L292.27 182.95L296.49 171.26L296.74 173.2L295.08 179.45L295.13 179.47L296.76 173.35L297.15 176.37L294.84 189.56L294.9 189.57L297.17 176.56L297.87 182L297.65 184.55L297.71 184.56L297.91 182.27L299.59 195.33L301.26 182.28L301.51 185.1L301.57 185.09L301.3 182.01L302 176.57L303.28 183.92L303.34 183.91L302.02 176.37L302.41 173.35L304.04 179.47L304.09 179.45L302.43 173.2L302.68 171.26L308.85 188.34L308.9 188.32L302.69 171.14L302.83 170.1L303.12 170.32L308.8 182.59L308.85 182.56L303.22 170.39L304.6 171.42L311.76 183.92L311.81 183.89L304.71 171.51L306.82 173.08L312.41 181.12L312.46 181.08L306.97 173.19L310.28 175.66L310.27 175.61L310.31 175.63L310.2 175.41L313.36 179.2L313.4 179.16L310.1 175.2L309.46 173.86L308.3 171.44L311.81 174.97L311.85 174.93L308.23 171.28L307.16 169.06L320.37 180.23L320.41 180.18L307.1 168.93L306.39 167.46L317.47 175.27L317.51 175.22L306.34 167.35L305.39 165.37L305.8 165.27L306.59 165.17L307.01 165.11L308.14 164.96L316.3 167.16L316.31 167.11L308.3 164.94L310.71 164.63L326.33 167.4L326.34 167.34L310.9 164.6L315.27 164.03L321.36 164.57L321.36 164.51L315.54 164L325.88 162.65H328.65V162.59H326.33L332.06 161.85Z" fill="#000" />
</g></svg>
