<svg xmlns="http://www.w3.org/2000/svg" viewBox="1237.66 131.76 121.49 121.44" fill="none" aria-hidden="true"><g><g>
<path d="M1298.5 203.3C1304.46 203.3 1309.3 198.45 1309.3 192.5C1309.3 186.55 1304.45 181.7 1298.5 181.7C1292.55 181.7 1287.7 186.55 1287.7 192.5C1287.7 198.45 1292.55 203.3 1298.5 203.3Z" fill="#000" />
<path d="M1240.97 195.01C1242.44 193.44 1244.57 191.54 1246.69 191.58L1246.96 191.63H1247.1C1247.1 191.64 1247.27 191.69 1247.27 191.69L1247.62 191.78C1249.09 192.14 1249.95 192.96 1251.11 194.17C1252.34 195.54 1254.68 197.76 1256.99 198.15C1258.91 198.59 1260.77 198.31 1262.58 197.74C1264.34 197.16 1266.61 195.88 1268.03 195.29C1269 194.91 1269.57 194.88 1269.91 195.14C1270.24 195.39 1270.32 195.63 1270.38 195.74C1270.66 196.17 1271.11 196.58 1271.47 196.94C1273.6 199.1 1276.58 200.61 1279.68 200.5C1280.8 200.43 1281.92 200.27 1283.01 199.98C1283.07 200.12 1283.15 200.25 1283.21 200.38C1278.33 200.83 1274.44 203.9 1273.43 209.36C1272.87 211.73 1273.08 214.44 1272.21 216.27C1271.93 216.66 1271.69 216.97 1271.27 217.22C1270.29 217.78 1267.5 217.93 1265.96 218.57C1264.5 219.11 1263.2 220.05 1262.2 221.24C1261.98 221.53 1261.5 222.2 1261.27 222.51L1260.71 223.42C1259.21 225.73 1258.55 228.84 1258.77 231.48C1258.83 232.65 1258.93 233.69 1258.41 234.74C1258.07 235.27 1258.8 235.83 1259.25 235.42C1261.13 233.68 1260.96 230.53 1262.24 228.55C1263.09 227.06 1264.39 225.82 1265.76 224.79C1266.73 224.16 1267.64 224.16 1268.84 224.25C1270.51 224.47 1274.09 224.38 1276 223.06C1276.83 222.59 1277.67 221.94 1278.34 221.25C1280.73 218.78 1281.26 215.58 1282.45 213.03C1282.6 212.63 1282.76 212.18 1283.48 211.81C1284.21 211.44 1283.84 211.65 1284.03 211.6C1284.47 211.5 1285.27 211.31 1286.51 211.05C1288.55 210.61 1290.55 209.8 1292.2 208.53C1292.54 208.66 1292.89 208.79 1293.24 208.9C1289.83 213.09 1289.77 218.19 1293.47 223.02C1294.77 224.74 1296.14 226.08 1296.75 227.61C1296.82 227.78 1296.84 228 1296.88 228.17C1296.97 229.57 1296.35 230.03 1295.24 231.7C1293.91 233.51 1292.97 236.02 1293.25 238.34C1293.35 239.1 1293.52 240.2 1293.72 240.95C1294.07 242.32 1294.58 243.7 1295.37 244.93C1296.45 246.72 1297.98 247.83 1299.31 249.22C1299.67 249.64 1299.95 250.09 1300.12 250.63C1300.3 251.2 1301.17 251.04 1301.18 250.48C1301.28 247.91 1298.94 245.81 1298.44 243.5C1297.99 241.86 1298.03 240.05 1298.28 238.37C1298.51 237.23 1299.16 236.58 1300.06 235.79C1301.39 234.77 1303.86 232.18 1304.29 229.9C1304.55 228.96 1304.69 227.92 1304.66 226.95C1304.6 223.52 1302.72 220.86 1301.74 218.23C1301.63 217.92 1301.57 217.61 1301.51 217.3C1301.44 216.99 1301.48 216.69 1301.62 216.42C1301.76 216.16 1301.69 216.3 1301.71 216.29C1301.91 216 1302.35 215.24 1303.2 213.94C1304.31 212.22 1305.15 210.26 1305.44 208.23C1305.73 208.09 1306.05 207.95 1306.33 207.79C1306.78 212.67 1309.85 216.56 1315.31 217.57C1317.68 218.13 1320.39 217.92 1322.22 218.79C1322.61 219.07 1322.92 219.31 1323.17 219.73C1323.73 220.72 1323.88 223.5 1324.52 225.04C1325.06 226.5 1326 227.8 1327.19 228.8C1327.48 229.02 1328.15 229.5 1328.46 229.73L1329.37 230.29C1331.68 231.79 1334.78 232.45 1337.43 232.23C1338.6 232.16 1339.64 232.06 1340.68 232.59C1341.22 232.93 1341.78 232.2 1341.37 231.75C1339.62 229.87 1336.48 230.04 1334.5 228.76C1333.01 227.91 1331.77 226.62 1330.74 225.24C1330.11 224.27 1330.11 223.36 1330.19 222.16C1330.42 220.49 1330.33 216.91 1329.01 215C1328.54 214.17 1327.89 213.33 1327.2 212.66C1324.73 210.28 1321.53 209.74 1318.98 208.55C1318.69 208.42 1318.42 208.29 1318.21 208.09C1317.42 207.33 1317.11 206.75 1317.02 205.11C1316.94 203.48 1316.91 204.06 1316.77 203.56C1316.3 201.84 1315.55 200.2 1314.48 198.79C1314.62 198.45 1314.74 198.1 1314.85 197.75C1319.04 201.16 1324.15 201.22 1328.97 197.51C1330.69 196.22 1332.03 194.84 1333.56 194.23C1333.72 194.17 1333.95 194.15 1334.12 194.11C1335.52 194.02 1335.98 194.63 1337.65 195.74C1339.46 197.08 1341.97 198.01 1344.29 197.74C1345.05 197.64 1346.14 197.45 1346.9 197.26C1348.27 196.92 1349.65 196.4 1350.88 195.62C1352.67 194.53 1353.78 193.01 1355.17 191.68C1355.59 191.31 1356.04 191.04 1356.58 190.87C1357.15 190.69 1356.99 189.82 1356.43 189.81C1353.86 189.71 1351.76 192.05 1349.45 192.55C1347.81 193 1346 192.96 1344.31 192.71C1343.18 192.47 1342.53 191.83 1341.74 190.93C1340.72 189.59 1338.13 187.12 1335.85 186.7C1334.91 186.44 1333.87 186.3 1332.9 186.33C1329.47 186.39 1326.81 188.27 1324.18 189.24C1323.88 189.36 1323.6 189.41 1323.3 189.47C1323 189.53 1322.86 189.58 1322.41 189.37C1321.96 189.16 1322.22 189.27 1322.14 189.21C1321.79 188.98 1321.06 188.55 1319.89 187.77C1318.17 186.66 1316.21 185.83 1314.18 185.54C1313.62 184.25 1312.89 183.06 1312.05 181.97C1312.2 181.87 1312.33 181.78 1312.45 181.72C1312.91 181.5 1313.24 181.59 1313.31 181.6C1313.49 181.62 1313.88 181.55 1314.1 181.54C1314.9 181.44 1316.69 181.39 1318.77 180.65C1320.09 180.16 1321.38 179.38 1322.42 178.43C1323.73 177.22 1324.92 175.47 1325.45 173.88C1326.53 171.11 1326.42 168.33 1327.13 165.77C1327.59 163.77 1329.12 163.74 1331.25 163.2C1332.55 162.89 1334.11 162.44 1335.47 161.55C1336.13 161.14 1336.77 160.63 1337.29 160.04C1337.53 159.79 1337.89 159.42 1338.07 159.13C1340.01 156.4 1339.4 152.69 1338.23 149.79C1337.99 149.21 1337.1 149.47 1337.18 150.07C1337.25 152.21 1337.09 155.06 1335.57 156.54L1335.35 156.7L1335.23 156.79L1335.07 156.88L1334.76 157.06C1333.46 157.84 1332.27 157.87 1330.59 157.84C1328.76 157.72 1325.53 157.82 1323.62 159.17C1321.95 160.22 1320.84 161.73 1319.95 163.41C1319.12 165.06 1318.42 167.58 1317.83 169C1317.5 169.76 1317.09 170.11 1316.4 170.27C1315.71 170.44 1315.8 170.34 1315.5 170.31C1314.91 170.25 1314.28 170.28 1313.72 170.28C1310.56 170.34 1307.39 171.69 1305.36 174.16C1304.86 174.82 1304.4 175.51 1303.99 176.22C1302.93 175.86 1301.82 175.6 1300.67 175.45C1300.71 175.22 1300.76 175 1300.79 174.84C1300.79 174.84 1300.97 174.59 1301.12 174.38C1301.27 174.16 1301.29 174.16 1301.39 174.05C1301.53 173.9 1301.71 173.65 1301.84 173.52C1302.34 172.88 1303.55 171.58 1304.51 169.6C1305.1 168.31 1305.46 166.85 1305.53 165.44C1305.6 163.66 1305.21 161.59 1304.46 160.08C1303.26 157.36 1301.22 155.48 1299.91 153.16C1298.82 151.43 1299.88 150.31 1301.02 148.42C1301.72 147.27 1302.5 145.86 1302.84 144.28C1303.02 143.52 1303.1 142.71 1303.07 141.92C1303.05 141.57 1303.04 141.06 1302.98 140.74C1302.42 137.43 1299.36 135.24 1296.49 134.01C1295.92 133.76 1295.46 134.57 1295.94 134.95C1297.51 136.42 1299.41 138.54 1299.37 140.66L1299.32 140.94V141.07C1299.31 141.07 1299.26 141.25 1299.26 141.25L1299.17 141.6C1298.81 143.07 1297.99 143.93 1296.78 145.09C1295.41 146.31 1293.19 148.66 1292.8 150.96C1292.36 152.88 1292.64 154.74 1293.21 156.55C1293.78 158.31 1295.07 160.58 1295.66 162C1295.88 162.56 1295.84 163.19 1295.78 163.61C1295.72 164.04 1295.52 164.2 1295.24 164.35C1294.97 164.5 1295.22 164.36 1295.21 164.36C1294.78 164.63 1294.37 165.08 1294.01 165.44C1291.85 167.58 1290.34 170.56 1290.45 173.65C1290.52 174.78 1290.68 175.9 1290.97 176.98C1289.87 177.51 1288.85 178.16 1287.9 178.88C1287.72 178.63 1287.61 178.34 1287.57 178.06C1287.54 177.77 1287.52 177.71 1287.52 177.63C1287.55 177.44 1287.47 177.06 1287.46 176.83C1287.36 176.03 1287.31 174.25 1286.58 172.17C1286.09 170.85 1285.3 169.56 1284.36 168.51C1283.15 167.22 1281.4 166.02 1279.8 165.48C1277.03 164.41 1274.25 164.52 1271.69 163.81C1269.7 163.35 1269.66 161.82 1269.13 159.68C1268.81 158.38 1268.36 156.83 1267.48 155.47C1267.07 154.81 1266.56 154.17 1265.97 153.65C1265.72 153.41 1265.35 153.05 1265.06 152.87C1262.33 150.93 1258.61 151.54 1255.72 152.71C1255.13 152.95 1255.39 153.83 1255.99 153.76C1258.14 153.68 1260.98 153.84 1262.46 155.37L1262.63 155.59L1262.71 155.7L1262.8 155.87L1262.99 156.18C1263.76 157.47 1263.8 158.67 1263.76 160.34C1263.65 162.18 1263.75 165.41 1265.1 167.32C1266.14 168.99 1267.65 170.1 1269.34 170.98C1270.98 171.82 1273.5 172.52 1274.93 173.1C1275.89 173.52 1276.31 173.9 1276.36 174.34C1276.36 174.34 1276.36 174.36 1276.36 174.38C1276.4 174.55 1276.38 174.74 1276.32 174.91C1276.26 175.09 1276.3 174.97 1276.3 175C1276.27 175.06 1276.26 175.12 1276.25 175.19C1276.14 175.84 1276.19 176.57 1276.19 177.23C1276.25 180.39 1277.59 183.56 1280.06 185.59C1280.73 186.09 1281.41 186.55 1282.12 186.96C1281.76 188.02 1280.9 190.19 1280.74 190.16L1280.4 190.09L1280.29 190C1280.09 189.92 1280.15 189.76 1280.03 189.64C1279.9 189.49 1279.59 189.27 1279.42 189.12C1278.78 188.62 1277.48 187.41 1275.5 186.45C1274.21 185.86 1272.75 185.5 1271.35 185.43C1269.56 185.37 1267.49 185.75 1265.98 186.5C1263.26 187.7 1261.38 189.74 1259.06 191.05C1257.33 192.14 1256.22 191.08 1254.32 189.94C1253.17 189.24 1251.76 188.46 1250.18 188.12C1249.42 187.95 1248.61 187.86 1247.82 187.9C1247.47 187.91 1246.96 187.92 1246.64 187.99C1243.33 188.55 1241.13 191.6 1239.91 194.47C1239.66 195.04 1240.47 195.51 1240.85 195.02L1240.97 195.01ZM1298.5 178.99C1305.95 178.99 1312.01 185.05 1312.01 192.5C1312.01 199.95 1305.95 206.01 1298.5 206.01C1291.05 206.01 1284.99 199.95 1284.99 192.5C1284.99 185.05 1291.05 178.99 1298.5 178.99Z" fill="#000" />
</g>
</g></svg>
